<svg width="15" height="15" viewBox="0 0 15 15" fill="none" xmlns="http://www.w3.org/2000/svg">
    <path d="M6.84961 1H13.152C13.6208 1 14.0008 1.38003 14.0008 1.84882V8.6275C14.0008 9.09629 13.6208 9.47632 13.152 9.47632H8" stroke="#529AFF" stroke-width="1.5" stroke-linecap="round" stroke-linejoin="round"/>
    <path d="M3.64854 4.50107C4.61534 4.50107 5.39908 3.71733 5.39908 2.75053C5.39908 1.78374 4.61534 1 3.64854 1C2.68175 1 1.89801 1.78374 1.89801 2.75053C1.89801 3.71733 2.68175 4.50107 3.64854 4.50107Z" stroke="#529AFF" stroke-width="1.5" stroke-linecap="round" stroke-linejoin="round"/>
    <path d="M9.5 6.02747C9.5 5.46001 9.03999 5 8.47253 5H3.64893C2.18597 5 1 6.18596 1 7.64893V10H2.13525L2.51367 14H4.78418L5.65625 7.05493H8.47253C9.03999 7.05493 9.5 6.59492 9.5 6.02747Z" stroke="#529AFF" stroke-width="1.5" stroke-linecap="round" stroke-linejoin="round"/>
</svg>