<svg width="13" height="15" viewBox="0 0 13 15" fill="none" xmlns="http://www.w3.org/2000/svg">
    <path d="M3.05543 10.9878C3.68579 10.9878 4.19679 10.4768 4.19679 9.84645C4.19679 9.21609 3.68579 8.70508 3.05543 8.70508C2.42507 8.70508 1.91406 9.21609 1.91406 9.84645C1.91406 10.4768 2.42507 10.9878 3.05543 10.9878Z" stroke="#529AFF" stroke-width="1.5" stroke-linecap="round" stroke-linejoin="round"/>
    <path d="M1 13.9338C1.00363 13.5858 1.09541 13.2444 1.26675 12.9415C1.62782 12.3032 2.32128 11.8979 3.05446 11.8963C3.78764 11.8979 4.4811 12.3032 4.84217 12.9415C5.01351 13.2444 5.10528 13.5858 5.10892 13.9338" stroke="#529AFF" stroke-width="1.5" stroke-linecap="round" stroke-linejoin="round"/>
    <path d="M10.1004 10.9878C10.7308 10.9878 11.2418 10.4768 11.2418 9.84645C11.2418 9.21609 10.7308 8.70508 10.1004 8.70508C9.46999 8.70508 8.95898 9.21609 8.95898 9.84645C8.95898 10.4768 9.46999 10.9878 10.1004 10.9878Z" stroke="#529AFF" stroke-width="1.5" stroke-linecap="round" stroke-linejoin="round"/>
    <path d="M8.04492 13.9338C8.04856 13.5858 8.14033 13.2444 8.31167 12.9415C8.67274 12.3032 9.3662 11.8979 10.0994 11.8963C10.8326 11.8979 11.5261 12.3032 11.8871 12.9415C12.0585 13.2444 12.1503 13.5858 12.1539 13.9338" stroke="#529AFF" stroke-width="1.5" stroke-linecap="round" stroke-linejoin="round"/>
    <path d="M6.57396 4.50216C7.16237 4.50216 7.63937 4.02516 7.63937 3.43675C7.63937 2.84834 7.16237 2.37134 6.57396 2.37134C5.98555 2.37134 5.50854 2.84834 5.50854 3.43675C5.50854 4.02516 5.98555 4.50216 6.57396 4.50216Z" stroke="#529AFF" stroke-width="1.5" stroke-linecap="round" stroke-linejoin="round"/>
    <path d="M4.58276 7.17333C4.58629 6.83592 4.67527 6.50492 4.8414 6.21122C5.1915 5.59231 5.86388 5.19929 6.57477 5.19775C7.28566 5.19929 7.95804 5.59231 8.30814 6.21122C8.47427 6.50491 8.56326 6.83592 8.56678 7.17333" stroke="#529AFF" stroke-width="1.5" stroke-linecap="round" stroke-linejoin="round"/>
    <path d="M11.3568 1H1.79318C1.39651 1 1.07495 1.32156 1.07495 1.71823V6.45508C1.07495 6.85175 1.39651 7.17331 1.79318 7.17331H11.3568C11.7534 7.17331 12.075 6.85175 12.075 6.45508V1.71823C12.075 1.32156 11.7534 1 11.3568 1Z" stroke="#529AFF" stroke-width="1.5" stroke-linecap="round" stroke-linejoin="round"/>
</svg>
