<svg width="15" height="15" viewBox="0 0 15 15" fill="none" xmlns="http://www.w3.org/2000/svg">
    <path d="M9.75001 5.49219C10.8772 5.49219 11.9582 5.93996 12.7552 6.73699C13.5522 7.53402 14 8.61502 14 9.74219C14.0027 10.5788 13.7554 11.3971 13.29 12.0922L14 13.9922L11.61 13.5622C11.0352 13.8425 10.4046 13.9895 9.76513 13.9922C9.12566 13.9949 8.49382 13.8532 7.91669 13.5778C7.33956 13.3024 6.83203 12.9002 6.43191 12.4014C6.03179 11.9026 5.74939 11.3199 5.60577 10.6967C5.46215 10.0736 5.46099 9.42605 5.6024 8.8024C5.74381 8.17875 6.02413 7.59505 6.42247 7.09479C6.82081 6.59453 7.32691 6.19062 7.90305 5.91314C8.4792 5.63566 9.11053 5.49177 9.75001 5.49219Z" stroke="#529AFF" stroke-width="1.5" stroke-linecap="round" stroke-linejoin="round"/>
    <path d="M10.36 3.00223C9.68659 2.1453 8.76272 1.51968 7.71703 1.21247C6.67134 0.905264 5.55588 0.931762 4.52596 1.28827C3.49604 1.64479 2.60292 2.31357 1.97093 3.20151C1.33895 4.08944 0.999561 5.15235 1.00002 6.24223C0.996924 7.27823 1.30336 8.29155 1.88002 9.15223L1.00002 11.4922L3.12002 11.1122" stroke="#529AFF" stroke-width="1.5" stroke-linecap="round" stroke-linejoin="round"/>
</svg>
